<svg width="26" height="25" viewBox="0 0 26 25" fill="none" xmlns="http://www.w3.org/2000/svg">
<path fill-rule="evenodd" clip-rule="evenodd" d="M13.6933 4.83308C13.3062 4.46085 12.6942 4.46085 12.3071 4.83308L12.2217 4.91519C11.8127 5.30839 11.8124 5.96266 12.221 6.35623L17.5177 11.4583H5.3335C4.78121 11.4583 4.3335 11.906 4.3335 12.4583V12.5416C4.3335 13.0939 4.78121 13.5416 5.3335 13.5416H17.5177L12.221 18.6437C11.8124 19.0373 11.8127 19.6915 12.2217 20.0847L12.3071 20.1668C12.6942 20.5391 13.3062 20.5391 13.6933 20.1668L21.6668 12.5L13.6933 4.83308Z" fill="black" fill-opacity="0.7"/>
<mask id="mask0_22_1197" style="mask-type:luminance" maskUnits="userSpaceOnUse" x="4" y="4" width="18" height="17">
<path fill-rule="evenodd" clip-rule="evenodd" d="M13.6933 4.83308C13.3062 4.46085 12.6942 4.46085 12.3071 4.83308L12.2217 4.91519C11.8127 5.30839 11.8124 5.96266 12.221 6.35623L17.5177 11.4583H5.3335C4.78121 11.4583 4.3335 11.906 4.3335 12.4583V12.5416C4.3335 13.0939 4.78121 13.5416 5.3335 13.5416H17.5177L12.221 18.6437C11.8124 19.0373 11.8127 19.6915 12.2217 20.0847L12.3071 20.1668C12.6942 20.5391 13.3062 20.5391 13.6933 20.1668L21.6668 12.5L13.6933 4.83308Z" fill="white"/>
</mask>
<g mask="url(#mask0_22_1197)">
<rect width="26" height="25" fill="#F66D20"/>
</g>
</svg>
