<svg width="33" height="31" viewBox="0 0 33 31" fill="none" xmlns="http://www.w3.org/2000/svg">
<path d="M32.1198 15.3559L18.1403 1.64439L17.2032 0.724849C16.9897 0.516715 16.701 0.399902 16.4001 0.399902C16.0991 0.399902 15.8104 0.516715 15.5969 0.724849L0.680314 15.3559C0.461544 15.5697 0.288646 15.8244 0.171827 16.1049C0.0550072 16.3854 -0.00336691 16.686 0.000149961 16.989C0.0146215 18.2387 1.07466 19.2364 2.34816 19.2364H3.88577V29.7999C3.88577 30.3522 4.33348 30.7999 4.88577 30.7999H27.9144C28.4666 30.7999 28.9144 30.3522 28.9144 29.7999V19.2364H30.4845C31.1032 19.2364 31.6857 18.9985 32.1234 18.5689C32.339 18.3581 32.5098 18.1074 32.6259 17.8313C32.742 17.5552 32.8012 17.2593 32.8 16.9606C32.8 16.3571 32.5576 15.7855 32.1198 15.3559ZM18.4261 28.2436H14.374V21.0009H18.4261V28.2436ZM26.3095 16.6801V28.2436H20.7415V20.1488C20.7415 19.3642 20.0939 18.7287 19.2944 18.7287H13.5057C12.7062 18.7287 12.0586 19.3642 12.0586 20.1488V28.2436H6.49065V16.6801H3.01747L16.4037 3.55448L17.2394 4.37461L29.7863 16.6801H26.3095Z" fill="#3C4C6A"/>
</svg>
